# xmcd CD database file
#
# Track frame offsets:
#	150
#	19172
#	41689
#	62578
#	81484
#	106208
#	125890
#	152009
#	167171
#	187608
#	202312
#	226824
#	241860
#	257327
#	268019
#	280582
#
# Disc length: 3929 seconds
#
# Revision: 0
# Processed by: cddbd v1.5.1PL2 Copyright (c) Steve Scherf et al.
# Submitted via: Feurio! 1.68 - http://www.feurio.com
#
DISCID=d50f5710
DTITLE=B B King - Midnight Believer - Take It Home
DYEAR=1978
DGENRE=Blues
TTITLE0=When It All Comes Down
TTITLE1=Midnight Believer
TTITLE2=I Just Can't Leave Your Love Alone
TTITLE3=Hold On
TTITLE4=Never Make A Move Too Soon
TTITLE5=A World Full Of Strangers
TTITLE6=Let Me Make You Cry A Little Longer
TTITLE7=Better Not Look Down
TTITLE8=Same Old Story, Same Old Song
TTITLE9=Happy Birthday Blues
TTITLE10=I've Always Been Lonely
TTITLE11=Second-Hand Woman
TTITLE12=Tonight I'm Gonna Make You A Star
TTITLE13=The Beginning Of The End
TTITLE14=A Story Everybody Knows
TTITLE15=Take It Home
EXTD=Track 1-7 from the original album Midnight Believer\r\nTrack 8-16 from 
EXTD=the original album Take It Home\r\nB B King with the Crusaders
EXTT0=
EXTT1=
EXTT2=
EXTT3=
EXTT4=
EXTT5=
EXTT6=
EXTT7=
EXTT8=
EXTT9=
EXTT10=
EXTT11=
EXTT12=
EXTT13=
EXTT14=
EXTT15=
PLAYORDER=
